<?xml version="1.0" standalone="no"?>
<!DOCTYPE svg PUBLIC "-//W3C//DTD SVG 20010904//EN"
 "http://www.w3.org/TR/2001/REC-SVG-20010904/DTD/svg10.dtd">
<svg version="1.0" xmlns="http://www.w3.org/2000/svg"
 width="1920.000000pt" height="1280.000000pt" viewBox="0 0 1920.000000 1280.000000"
 preserveAspectRatio="xMidYMid meet">
<g transform="translate(0.000000,1280.000000) scale(0.100000,-0.100000)"
fill="#fdf202" stroke="none">
<path d="M0 6400 l0 -6400 9600 0 9600 0 0 6400 0 6400 -9600 0 -9600 0 0
-6400z m7655 2066 c19 -8 35 -17 35 -19 0 -2 -22 -2 -50 1 -140 13 -306 -166
-383 -413 -29 -93 -57 -248 -57 -316 0 -31 -5 -51 -17 -60 -15 -13 -16 -7 -9
80 28 372 174 655 375 727 47 17 65 17 106 0z m171 -62 c24 -62 15 -184 -19
-257 -74 -162 -291 -404 -534 -596 l-80 -64 -6 -116 c-39 -782 -468 -1443
-1145 -1767 -494 -236 -1062 -229 -1412 17 l-60 42 -234 -177 c-319 -241 -468
-366 -616 -515 -237 -238 -325 -395 -275 -490 9 -18 12 -30 6 -26 -26 16 -43
69 -39 121 6 75 53 161 153 281 147 176 344 349 744 652 l240 181 81 -54 c305
-205 757 -237 1196 -85 394 136 744 406 985 763 215 318 349 737 349 1099 0
78 2 89 23 106 12 11 54 46 92 78 268 221 450 432 516 594 33 81 32 200 0 254
-23 37 -23 39 -3 21 12 -10 29 -38 38 -62z m-802 -1042 c-60 -52 -307 -229
-776 -556 l-428 -298 0 -44 c0 -127 -70 -303 -152 -385 -65 -65 -207 -134
-306 -150 -88 -13 -208 0 -280 31 l-49 21 -158 -111 c-151 -105 -186 -123
-200 -100 -3 6 -2 10 3 10 5 0 82 51 171 114 l163 113 61 -25 c74 -30 213 -41
298 -23 70 15 169 61 235 111 100 75 170 221 182 378 l7 84 411 287 c549 383
734 515 796 572 48 42 53 45 57 25 2 -14 -9 -31 -35 -54z m-1784 -256 c72 -20
186 -78 230 -117 20 -18 24 -24 10 -15 -147 94 -218 118 -375 124 -214 8 -380
-51 -505 -178 -257 -261 -279 -686 -53 -1015 l34 -50 -36 40 c-50 55 -131 222
-157 325 -29 115 -29 283 0 391 38 143 136 303 230 377 73 58 199 110 332 136
46 9 234 -3 290 -18z m4453 -249 c-1 -45 -31 -100 -101 -188 -114 -143 -263
-280 -362 -334 -8 -4 50 57 130 136 214 212 310 339 310 412 0 24 3 28 12 19
7 -7 12 -27 11 -45z m2892 13 c29 -55 13 -131 -47 -218 -108 -158 -326 -290
-563 -341 -78 -17 -80 -19 -80 -47 1 -16 5 -40 9 -54 7 -22 7 -23 -7 -10 -19
18 -37 93 -28 109 4 6 31 15 59 21 268 50 525 215 612 392 28 58 32 75 28 123
-3 30 -3 55 -2 55 2 0 10 -13 19 -30z m1035 -59 c0 -105 -104 -246 -255 -346
-117 -78 -277 -144 -393 -161 -26 -4 -50 -11 -53 -16 -4 -6 -2 -28 3 -50 5
-22 6 -43 3 -46 -8 -8 -35 65 -35 96 0 28 3 30 63 41 303 59 579 257 638 459
9 32 10 51 1 80 l-11 37 19 -24 c14 -16 20 -38 20 -70z m842 24 c-1 -20 -13
-58 -28 -84 -64 -118 -286 -360 -404 -440 -63 -43 -60 -39 75 100 228 233 335
379 335 453 0 23 3 27 12 18 6 -6 11 -27 10 -47z m-5806 -53 c4 -26 13 -56 20
-67 37 -53 5 -164 -103 -362 -39 -71 -73 -138 -77 -150 -4 -13 -14 -23 -23
-23 -25 0 -9 42 72 190 41 74 83 160 95 190 24 62 29 152 10 175 -7 9 -16 35
-20 58 -4 23 -11 51 -14 62 -7 18 -5 17 13 -3 11 -13 23 -44 27 -70z m6424 46
c40 -67 18 -171 -65 -300 -103 -160 -305 -392 -305 -350 0 5 50 72 111 148
171 214 222 294 244 389 13 52 9 111 -6 121 -10 6 -12 24 -4 24 3 0 14 -15 25
-32z m-2620 14 c0 -5 -25 -19 -55 -31 -124 -52 -307 -194 -406 -317 -47 -57
-93 -93 -105 -81 -2 2 31 46 75 98 112 134 224 226 365 301 66 35 126 49 126
30z m1030 -1 c0 -5 -22 -17 -49 -26 -94 -31 -228 -130 -368 -271 -118 -119
-153 -149 -153 -128 0 13 102 132 167 196 82 80 206 170 288 209 59 28 115 38
115 20z m-4949 -37 c11 -13 9 -14 -12 -9 -109 27 -487 -284 -645 -531 -37 -58
-54 -73 -54 -49 0 86 272 385 476 523 114 78 204 103 235 66z m954 -14 c-10
-12 -64 -55 -119 -98 -56 -42 -125 -96 -154 -119 -39 -32 -62 -43 -87 -43 -32
0 -52 -17 -223 -183 -298 -291 -427 -369 -536 -323 -52 22 -51 34 2 21 64 -17
109 -2 214 68 93 62 185 144 366 325 112 111 126 123 151 117 24 -5 43 6 132
76 162 128 309 219 254 159z m4754 -6 c-7 -9 -47 -39 -89 -67 -41 -28 -110
-82 -153 -120 -66 -58 -84 -68 -110 -66 -27 3 -52 -13 -167 -105 -265 -211
-519 -364 -669 -402 -86 -21 -175 -16 -224 15 -46 28 -43 38 3 14 52 -25 159
-21 249 11 153 54 370 190 614 385 120 96 141 110 166 105 25 -5 39 3 103 58
89 78 159 130 230 168 55 30 70 32 47 4z m-2385 -90 c9 -22 -4 -41 -76 -111
-153 -148 -353 -237 -564 -250 -116 -7 -202 4 -427 53 -161 35 -254 42 -303
24 -14 -6 -64 -37 -110 -70 -45 -33 -112 -74 -149 -91 -57 -27 -74 -31 -131
-27 -44 3 -70 9 -82 22 -16 16 -16 17 13 9 54 -15 128 -8 175 17 25 12 93 56
153 96 59 40 123 76 143 80 46 9 121 -1 248 -31 358 -84 548 -78 763 24 45 22
108 57 140 79 85 59 183 151 183 173 0 23 15 25 24 3z m3620 -20 c14 -37 0
-56 -141 -180 -300 -264 -444 -375 -573 -439 -85 -43 -144 -49 -199 -20 -41
21 -36 28 10 15 18 -6 46 -10 61 -10 64 0 278 135 459 290 200 171 359 314
360 324 1 6 1 17 0 24 -3 18 16 15 23 -4z m-616 -15 c-2 -6 -31 -21 -65 -34
-85 -30 -254 -134 -483 -295 -377 -265 -438 -303 -489 -307 -33 -3 -52 0 -66
12 -19 15 -19 16 11 10 19 -4 46 0 67 9 36 15 257 162 467 312 203 144 360
240 460 281 60 24 104 30 98 12z m-4950 -75 c37 -10 25 -24 -20 -24 -97 0
-262 -94 -571 -322 -116 -87 -237 -171 -268 -188 -62 -33 -115 -38 -145 -15
-18 15 -17 16 14 9 51 -9 131 35 327 183 297 222 426 302 555 344 61 20 75 21
108 13z m2838 -101 c-17 -34 -173 -158 -330 -263 -268 -180 -472 -246 -592
-191 -53 24 -68 46 -17 24 52 -21 154 -19 233 6 154 48 423 217 661 415 29 24
55 43 57 41 2 -2 -3 -16 -12 -32z m-7046 -13 c0 -24 -131 -124 -345 -265 -215
-141 -260 -167 -287 -163 -20 3 -14 9 40 43 151 95 404 266 492 333 52 39 96
72 98 72 1 0 2 -9 2 -20z m2669 -72 c-14 -26 -195 -207 -264 -264 -120 -99
-217 -138 -288 -115 -19 7 -41 19 -49 28 -11 15 -11 16 7 8 36 -15 93 -17 132
-5 66 22 175 101 268 195 78 80 188 175 201 175 3 0 0 -10 -7 -22z m-4905
-2058 c94 -55 302 -90 534 -90 128 0 152 2 152 15 0 8 5 15 10 15 6 0 10 -14
10 -32 l0 -31 -182 6 c-282 10 -431 42 -547 117 -34 22 -61 42 -61 46 0 3 12
-2 27 -11 14 -10 40 -26 57 -35z"/>
</g>
</svg>
