<?xml version="1.0" standalone="no"?>
<!DOCTYPE svg PUBLIC "-//W3C//DTD SVG 20010904//EN"
 "http://www.w3.org/TR/2001/REC-SVG-20010904/DTD/svg10.dtd">
<svg version="1.0" xmlns="http://www.w3.org/2000/svg"
 width="1920.000000pt" height="1280.000000pt" viewBox="0 0 1920.000000 1280.000000"
 preserveAspectRatio="xMidYMid meet">
<g transform="translate(0.000000,1280.000000) scale(0.100000,-0.100000)"
fill="#b496c8" stroke="none">
<path d="M7552 8549 c-64 -12 -139 -57 -206 -124 -132 -132 -220 -347 -261
-635 -8 -61 -15 -130 -15 -153 0 -41 -3 -45 -67 -94 -247 -184 -455 -332 -708
-501 -159 -107 -342 -233 -406 -281 l-115 -87 -11 47 c-26 109 -117 250 -218
338 -76 67 -214 134 -330 162 -76 18 -111 20 -220 17 -112 -4 -143 -9 -224
-37 -286 -96 -462 -301 -532 -616 -8 -37 -13 -119 -13 -210 1 -121 5 -165 23
-230 35 -132 104 -263 181 -345 l32 -34 -23 -16 c-13 -8 -102 -74 -199 -146
-467 -350 -778 -661 -883 -883 -42 -89 -49 -199 -17 -265 37 -77 151 -142 309
-176 102 -23 379 -43 458 -34 46 6 53 10 53 29 0 22 -4 23 -122 29 -290 16
-465 59 -572 141 -123 94 -44 280 239 560 144 143 299 271 614 509 l233 176
38 -30 c21 -17 76 -50 122 -74 474 -250 1147 -141 1678 273 446 347 741 911
766 1466 8 189 0 172 122 273 212 176 348 318 446 467 108 164 123 306 45 414
-44 62 -125 88 -217 70z m106 -84 c37 -11 65 -79 59 -142 -15 -144 -128 -292
-445 -582 l-102 -93 0 34 c0 18 5 72 10 118 42 349 194 617 378 666 46 12 54
12 100 -1z m-608 -1131 c-26 -235 -95 -480 -194 -689 -175 -368 -459 -657
-831 -845 -427 -216 -910 -245 -1263 -74 -95 46 -96 46 -70 60 25 13 247 167
297 205 22 17 25 17 55 2 85 -44 255 -57 357 -27 90 27 189 83 244 137 83 83
139 219 152 369 6 65 7 68 47 94 107 71 849 591 991 695 88 64 173 131 189
148 16 17 31 29 33 27 2 -2 -1 -48 -7 -102z m-1815 -229 c76 -20 170 -64 217
-102 88 -71 177 -199 219 -313 19 -53 20 -64 8 -71 -8 -4 -174 -118 -369 -253
l-355 -244 -23 21 c-34 32 -73 119 -74 166 0 39 -2 41 -31 41 l-30 0 5 -64 c6
-68 47 -159 80 -177 10 -5 18 -14 18 -19 0 -5 -72 -59 -161 -120 -185 -130
-169 -129 -241 -8 -88 148 -130 296 -130 453 0 279 141 531 357 638 149 73
349 94 510 52z m464 -691 c-26 -156 -126 -291 -264 -356 -81 -37 -199 -47
-310 -26 l-70 14 49 30 c106 64 436 285 516 347 47 36 86 64 88 62 2 -1 -2
-34 -9 -71z"/>
<path d="M12301 6944 c-67 -18 -187 -77 -272 -134 -75 -50 -217 -193 -266
-266 -46 -70 -83 -176 -83 -245 -1 -188 118 -292 296 -260 164 30 384 156 685
395 60 47 109 83 109 81 0 -3 -11 -27 -24 -53 -38 -73 -52 -157 -38 -228 31
-150 132 -220 283 -195 173 28 410 166 733 425 99 79 123 94 145 90 28 -6 45
6 164 109 55 48 217 151 225 143 2 -2 -78 -85 -178 -183 -345 -337 -428 -466
-356 -550 20 -24 32 -28 73 -28 46 0 60 7 189 94 76 52 198 136 269 186 287
202 448 300 543 331 98 31 94 23 -151 -290 -110 -139 -149 -224 -128 -279 10
-25 65 -47 118 -47 39 0 171 65 262 130 148 105 571 472 571 495 0 46 -35 58
-81 27 -14 -9 -79 -62 -145 -118 -179 -151 -430 -342 -521 -398 -31 -18 -5 20
99 150 221 275 283 402 242 502 -9 23 -30 52 -46 63 -65 47 -209 3 -382 -118
-85 -59 -426 -318 -511 -388 -157 -129 -159 -118 -5 41 276 284 365 430 300
489 -34 30 -133 25 -212 -12 -60 -28 -186 -122 -237 -176 -18 -20 -30 -24 -55
-21 -27 5 -41 -3 -111 -62 -281 -234 -576 -419 -734 -460 -53 -13 -71 -14
-107 -4 -36 10 -45 18 -58 51 -30 74 -25 84 50 98 98 18 248 75 338 128 100
60 233 188 270 261 38 74 43 137 16 180 -74 118 -323 64 -575 -125 -64 -49
-96 -67 -115 -65 -19 2 -58 -24 -170 -113 -269 -216 -553 -388 -686 -415 -105
-22 -164 16 -164 104 0 34 1 35 48 42 26 4 87 20 137 36 283 92 515 300 515
463 0 63 -16 93 -60 116 -42 23 -131 24 -209 3z m159 -109 c0 -65 -165 -242
-295 -315 -80 -45 -265 -116 -265 -101 0 15 127 160 191 218 88 80 156 128
245 174 80 41 124 50 124 24z m1030 9 c0 -15 -54 -111 -82 -147 -50 -63 -170
-152 -271 -202 -85 -41 -217 -89 -217 -78 0 2 26 37 59 76 111 136 248 250
386 321 62 32 125 47 125 30z"/>
<path d="M8403 6929 c-133 -22 -265 -96 -405 -227 -115 -109 -202 -222 -263
-342 -57 -113 -40 -253 37 -300 40 -24 113 -26 165 -5 62 26 165 106 264 204
53 53 116 110 140 127 l44 32 -38 -77 c-69 -139 -74 -245 -15 -281 57 -35 100
-35 170 -1 102 48 217 142 405 327 155 153 178 172 202 168 19 -4 36 2 63 23
20 15 82 63 138 106 56 42 125 89 153 103 l52 25 -36 -33 c-20 -18 -87 -76
-150 -128 -168 -140 -386 -362 -431 -440 -42 -71 -45 -88 -23 -129 10 -21 25
-31 50 -35 56 -11 135 33 342 187 239 179 344 249 445 297 128 61 218 70 232
23 3 -10 8 -56 11 -103 12 -169 29 -197 129 -207 49 -5 63 -2 128 29 40 20
111 63 158 97 131 94 154 97 405 41 210 -47 328 -63 425 -56 218 16 414 106
588 269 54 52 70 98 36 111 -26 10 -29 8 -105 -56 -129 -107 -268 -158 -439
-158 -93 0 -191 14 -435 62 -123 25 -188 32 -280 32 -114 1 -123 -1 -171 -27
-28 -16 -105 -69 -170 -118 -65 -49 -121 -89 -124 -89 -3 0 -11 38 -17 84 -13
92 -49 177 -86 200 -81 51 -219 10 -471 -141 -61 -36 -136 -83 -166 -103 -147
-99 -146 -94 11 61 207 205 299 328 299 402 0 44 -15 57 -67 57 -61 0 -170
-56 -303 -156 -89 -67 -113 -80 -137 -77 -35 6 -73 -23 -243 -182 -248 -233
-371 -330 -430 -342 -32 -6 -33 -5 -26 21 4 15 41 90 82 166 119 219 140 290
106 363 -11 23 -22 59 -25 81 -14 95 -94 136 -224 115z m143 -135 c16 -24 16
-26 -7 -42 -13 -9 -91 -71 -173 -137 -347 -280 -393 -317 -463 -364 -59 -41
-73 -47 -73 -32 0 42 105 179 244 317 236 235 421 336 472 258z"/>
</g>
</svg>
