<?xml version="1.0" standalone="no"?><!DOCTYPE svg PUBLIC "-//W3C//DTD SVG 20010904//EN" "http://www.w3.org/TR/2001/REC-SVG-20010904/DTD/svg10.dtd"><svg version="1.0" xmlns="http://www.w3.org/2000/svg" width="137.47927px" height="49px" viewBox="0 0 1083.000000 386.000000" preserveAspectRatio="xMidYMid meet"><g transform="translate(0.000000,386.000000) scale(0.100000,-0.100000)" fill="#ffffff" stroke="none"><path d="M3789 3816 c-62 -17 -140 -68 -190 -124 -113 -129 -196 -368 -215 -618 l-7 -92 -231 -169 c-127 -93 -311 -222 -408 -286 -204 -135 -471 -325 -476 -338 -8 -20 -20 -7 -26 29 -14 86 -118 241 -210 314 -138 110 -350 166 -525 139 -298 -46 -501 -222 -583 -507 -20 -68 -23 -102 -23 -239 0 -140 3 -169 23 -235 31 -98 85 -201 137 -258 l42 -46 -114 -83 c-254 -185 -452 -353 -618 -524 -186 -191 -267 -326 -267 -443 -1 -86 21 -128 89 -172 102 -68 235 -99 473 -110 130 -6 148 -5 163 10 9 10 17 21 17 26 0 10 -61 17 -205 24 -290 14 -486 117 -459 240 20 94 121 233 281 387 124 118 253 224 513 420 l205 155 70 -48 c289 -195 733 -208 1149 -34 212 89 375 202 556 385 306 307 487 721 507 1156 l6 132 80 64 c103 82 300 276 359 354 144 190 171 344 79 449 -39 44 -120 62 -192 42z m107 -71 c12 -3 28 -20 35 -38 53 -125 -51 -299 -325 -547 -64 -57 -116 -108 -116 -112 0 -5 -4 -8 -10 -8 -25 0 8 253 49 373 59 170 164 298 273 332 42 13 50 13 94 0z m-536 -996 c-33 -291 -134 -574 -288 -804 -86 -129 -283 -328 -407 -412 -243 -163 -472 -248 -743 -275 -203 -20 -390 11 -566 93 -36 17 -66 34 -65 37 0 4 64 51 142 106 l141 98 63 -22 c86 -30 172 -36 256 -16 218 51 347 199 365 421 l7 79 384 268 c482 336 639 449 681 493 19 19 35 33 37 31 2 -2 -1 -45 -7 -97z m-1580 -196 c151 -41 267 -139 340 -288 67 -136 96 -99 -272 -349 l-321 -220 -29 35 c-27 32 -58 112 -58 151 0 13 -7 18 -25 18 -22 0 -25 -4 -25 -33 0 -57 29 -134 63 -169 l32 -33 -139 -97 c-77 -54 -143 -98 -147 -98 -14 0 -70 79 -104 149 -67 135 -94 286 -75 422 30 218 143 387 314 469 140 67 302 83 446 43z m399 -605 c-26 -138 -103 -244 -217 -300 -64 -32 -71 -33 -187 -33 -174 0 -177 4 -62 74 116 71 330 217 412 282 33 26 61 46 63 44 2 -2 -2 -32 -9 -67z"/><path d="M7953 2415 c-94 -26 -235 -106 -325 -187 -58 -52 -156 -175 -178 -224 -68 -156 -40 -306 70 -361 139 -71 371 28 735 313 121 94 120 93 89 35 -48 -94 -43 -227 12 -303 48 -65 152 -85 265 -52 131 39 335 163 559 342 100 79 131 99 150 95 20 -3 43 11 111 70 91 78 202 151 220 145 7 -2 -52 -64 -131 -138 -242 -230 -350 -365 -350 -441 0 -52 18 -71 77 -76 50 -5 50 -5 219 110 530 362 614 414 697 425 l40 5 -74 -94 c-40 -52 -99 -128 -132 -169 -94 -119 -134 -215 -105 -252 7 -9 34 -23 59 -29 45 -12 50 -11 124 25 122 57 252 156 518 394 99 88 127 119 125 136 -2 14 -11 22 -29 24 -20 2 -58 -24 -180 -125 -85 -70 -199 -162 -254 -202 -55 -41 -120 -90 -144 -108 -46 -34 -68 -42 -55 -20 4 6 48 61 96 121 142 174 199 264 217 348 20 86 -21 155 -96 165 -45 6 -128 -24 -219 -78 -59 -35 -396 -287 -496 -370 -149 -124 -153 -113 -13 32 195 200 274 310 275 380 0 33 -18 48 -63 56 -83 13 -193 -39 -311 -148 -45 -41 -65 -53 -85 -51 -21 2 -53 -18 -146 -93 -149 -120 -364 -264 -471 -316 -156 -76 -248 -74 -274 5 -6 20 -10 43 -7 50 3 7 34 19 69 25 275 54 548 272 548 438 0 33 -7 50 -29 75 -29 32 -31 33 -113 33 -68 -1 -96 -6 -153 -29 -86 -36 -181 -93 -248 -148 -35 -30 -58 -42 -76 -40 -20 2 -56 -22 -151 -99 -149 -120 -333 -245 -440 -299 -195 -98 -300 -87 -300 30 0 25 4 28 47 35 72 11 227 69 304 115 131 77 234 193 260 290 31 120 -73 179 -238 135z m129 -131 c-65 -127 -222 -248 -402 -309 -41 -14 -75 -25 -77 -25 -23 0 161 196 237 254 110 84 233 145 253 126 5 -4 0 -25 -11 -46z m908 39 c0 -62 -127 -200 -248 -273 -65 -38 -230 -105 -239 -97 -7 7 78 109 143 172 76 75 200 161 273 192 68 27 71 28 71 6z"/><path d="M5559 2410 c-50 -15 -145 -70 -234 -137 -69 -52 -95 -67 -117 -64 -32 3 -60 -19 -263 -209 -131 -123 -243 -213 -296 -241 -35 -17 -40 -18 -45 -4 -6 16 3 36 103 228 64 121 81 193 59 239 -9 17 -16 39 -16 49 0 10 -7 37 -16 59 -53 131 -292 90 -498 -85 -126 -109 -260 -281 -292 -378 -21 -63 -14 -154 14 -195 25 -34 87 -57 134 -48 60 11 159 79 279 193 157 148 169 154 122 62 -37 -74 -52 -151 -39 -204 8 -30 56 -55 107 -55 78 0 209 95 427 309 124 122 158 150 175 146 23 -6 25 -5 178 111 52 40 114 82 139 94 l45 21 -45 -38 c-320 -271 -424 -372 -494 -477 -61 -92 -45 -156 38 -156 51 0 105 33 343 212 235 175 386 258 473 258 50 0 57 -13 65 -132 8 -98 28 -149 65 -159 82 -22 162 4 279 90 128 94 148 97 359 51 188 -40 254 -50 347 -50 194 0 379 77 543 226 70 63 80 96 29 102 -21 3 -39 -7 -79 -43 -29 -26 -77 -60 -108 -75 -158 -80 -274 -84 -615 -20 -189 35 -245 41 -315 38 -101 -5 -126 -17 -259 -117 -136 -104 -127 -102 -134 -23 -8 78 -50 171 -87 190 -42 22 -131 7 -228 -38 -83 -39 -274 -150 -337 -195 -110 -80 -100 -59 41 80 168 168 245 271 247 330 2 56 -30 75 -94 55z m-905 -110 c14 -5 26 -16 26 -24 0 -8 -51 -55 -112 -104 -62 -49 -171 -137 -243 -196 -139 -115 -273 -211 -281 -203 -10 9 35 84 94 158 135 169 339 335 452 370 35 10 36 10 64 -1z"/></g></svg>